<?xml version="1.0" encoding="UTF-8"?>
<svg id="Layer_2" color="white" data-name="Layer 2" xmlns="http://www.w3.org/2000/svg" viewBox="0 0 551 226.12">
    <g id="Layer_1-2" color="white" style="color: white; background-color: white" data-name="Layer 1"
       class="text-white fill-white">
        <path fill="white" color="white" d="M89,135L229.78,0h31.1l-100,107.77,137.13.23,8,27H89Z"/>
        <path fill="white" color="white" d="M168,105L266.29.46h15.06l49.11,134.62-20.46-.08-9-30M259.06,81l-.06-42-39,42h39.06Z"/>
        <path fill="white" color="white" d="M386,81L323,0h36l114,134-94.28.6-29.72-53.6,27,54h-42L284,0h18l28,81L312,0"/>
        <path fill="white" d="M111.16,137.94l-64.16,62.06,67.84-62.06h21.72l-91.56,88.06H0l89.31-88.06h21.84Z"/>
        <path fill="white" d="M48,226l90.84-88.06,25.32-.64-85.17,87.7-31,1Z"/>
        <path fill="white" d="M231,226l78.71-88.06h20.59l-29.3,88.06h-70Z"/>
        <path fill="white" d="M415,172l21.38,54.01h-20.59l-35.79-88.01h40l60,54-38-54h35l74,88-112-1-24-53Z"/>
        <path fill="white" d="M119.57,191.01l92.9,1.38,4.88-5.23h-41.17c-38.83,0-47.43-6.87-33.17-22.16,18.87-20.24,39.22-27,91.27-27h70.91l-29.4,31.53-95.49,1.1-4.37,4.68c19.41,0,34.99.28,47.42.83,39.5,1.79,44.6,6.68,27.65,24.86-16.05,17.21-39.01,25.12-71.51,25.12h-92.67l32.74-35.11Z"/>
        <path fill="white" d="M412.96,226h-106.96l27.91-88h43.09M343,165l-6,24h42l-9-24"/>
    </g>
</svg>

